<?xml version="1.0" encoding="UTF-8"?>
<svg width="142px" height="41px" viewBox="0 0 142 41" version="1.1" xmlns="http://www.w3.org/2000/svg" xmlns:xlink="http://www.w3.org/1999/xlink">
    <title>logo-profim-eps_profim</title>
    <defs>
        <polygon id="path-1" points="0.06 0.571 24.042 0.571 24.042 32.94 0.06 32.94"></polygon>
    </defs>
    <g id="logo-profim-eps_profim" stroke="none" stroke-width="1" fill="none" fill-rule="evenodd">
        <g id="Group-3" transform="translate(0.000000, 8.000000)">
            <mask id="mask-2" fill="white">
                <use xlink:href="#path-1"></use>
            </mask>
            <g id="Clip-2"></g>
            <path d="M12.019,3.708 C6.969,3.708 3.306,7.524 3.306,12.792 C3.306,17.967 7.051,21.871 12.019,21.871 C16.277,21.871 20.829,19.475 20.829,12.744 C20.829,6.079 16.277,3.708 12.019,3.708 M0,33 L0,13.604 C0.398,1.2 10.139,0.571 12.086,0.571 C12.392,0.571 12.563,0.587 12.563,0.587 C19.42,0.842 24.042,5.729 24.042,12.744 C24.042,20.07 19.211,24.996 12.019,24.996 C8.32,24.996 5.161,23.402 3.122,20.566 L3.118,30.523 C2.951,31.865 1.855,32.896 0.508,32.971 L0,33" id="Fill-1" fill="#414241" mask="url(#mask-2)"></path>
        </g>
        <path d="M141.438,31.027 C140.993,31.924 140.085,32.545 139.014,32.576 L138.522,32.592 L138.522,18.495 C138.522,14.389 135.729,11.52 131.734,11.52 C127.71,11.52 124.903,14.443 124.903,18.629 L124.9,30.184 C124.703,31.551 123.556,32.557 122.186,32.58 L121.691,32.58 L121.708,18.508 C121.651,14.391 118.854,11.52 114.881,11.52 C110.887,11.52 108.099,14.389 108.099,18.495 L108.092,30.176 C107.9,31.549 106.757,32.557 105.376,32.58 L104.886,32.59 L104.884,32.098 L104.884,18.495 C104.884,12.578 108.994,8.446 114.881,8.446 C118.551,8.446 121.744,10.348 123.311,13.379 C124.87,10.348 128.068,8.446 131.734,8.446 C137.625,8.446 141.731,12.578 141.731,18.495 L141.731,29.723 C141.731,30.439 141.438,31.027 141.438,31.027" id="Fill-4" fill="#414241"></path>
        <path d="M30.742,32.592 L30.742,19.553 C30.742,9.099 40.52,8.691 40.938,8.677 L41.586,8.656 L40.742,11.76 L40.406,11.787 C36.731,12.114 33.956,15.154 33.956,18.862 L33.956,29.836 C33.918,31.34 32.723,32.535 31.238,32.578 L30.742,32.592" id="Fill-5" fill="#414241"></path>
        <path d="M77.371,32.773 L77.371,16.213 L74.575,16.213 L74.575,13.272 L77.371,13.272 L77.371,11.345 C77.371,0.892 87.147,0.48 87.562,0.469 L88.212,0.45 L87.367,3.553 L87.035,3.58 C83.358,3.904 80.584,6.947 80.584,10.65 L80.584,13.272 L84.168,13.272 L83.422,16.213 L80.584,16.213 L80.584,30.016 C80.546,31.519 79.348,32.723 77.864,32.758 L77.371,32.773" id="Fill-6" fill="#414241"></path>
        <path d="M93.085,32.578 L92.596,32.578 L92.596,11.645 C92.596,10.136 93.789,8.9 95.314,8.855 L95.809,8.837 L95.802,30.254 C95.575,31.578 94.439,32.559 93.09,32.578 L93.085,32.578" id="Fill-7" fill="#414241"></path>
        <path d="M56.742,11.57 C51.614,11.57 47.891,15.446 47.891,20.792 C47.891,26.057 51.532,29.736 56.742,29.736 C61.957,29.736 65.597,26.057 65.597,20.792 C65.597,15.446 61.875,11.57 56.742,11.57 M56.742,32.906 C49.67,32.906 44.724,27.926 44.724,20.792 C44.724,13.663 49.781,8.494 56.742,8.494 C63.713,8.494 68.765,13.663 68.765,20.792 C68.765,27.926 63.82,32.906 56.742,32.906" id="Fill-8" fill="#414241"></path>
    </g>
</svg>